<svg width="180" height="150" viewBox="0 0 180 150" fill="none" xmlns="http://www.w3.org/2000/svg">
    <g clip-path="url(#clip0_1_104)">
        <path
            d="M89.7237 31.033C93.7613 31.033 97.0345 27.7599 97.0345 23.7222C97.0345 19.6846 93.7613 16.4114 89.7237 16.4114C85.686 16.4114 82.4128 19.6846 82.4128 23.7222C82.4128 27.7599 85.686 31.033 89.7237 31.033Z"
            fill="#4F617A" />
        <path
            d="M121.847 41.2237C123.193 41.2237 124.284 40.1327 124.284 38.7868C124.284 37.4409 123.193 36.3499 121.847 36.3499C120.501 36.3499 119.41 37.4409 119.41 38.7868C119.41 40.1327 120.501 41.2237 121.847 41.2237Z"
            fill="#3F3D56" />
        <path
            d="M146.216 65.3716C147.562 65.3716 148.653 64.2806 148.653 62.9347C148.653 61.5888 147.562 60.4978 146.216 60.4978C144.871 60.4978 143.78 61.5888 143.78 62.9347C143.78 64.2806 144.871 65.3716 146.216 65.3716Z"
            fill="#3F3D56" />
        <path
            d="M125.214 62.0447C126.559 62.0447 127.651 60.9536 127.651 59.6077C127.651 58.2619 126.559 57.1708 125.214 57.1708C123.868 57.1708 122.777 58.2619 122.777 59.6077C122.777 60.9536 123.868 62.0447 125.214 62.0447Z"
            fill="#3F3D56" />
        <path
            d="M89.7236 150C139.277 150 179.447 148.016 179.447 145.569C179.447 143.122 139.277 141.138 89.7236 141.138C40.1706 141.138 0 143.122 0 145.569C0 148.016 40.1706 150 89.7236 150Z"
            fill="#242C37" />
        <path
            d="M142.21 73.6031C141.192 71.9246 137.638 71.9679 137.638 71.9679C134.401 76.7766 126.622 71.6686 126.622 71.6686C120.843 74.2537 117.318 66.0156 117.318 66.0156C109.543 64.853 110.744 56.6873 110.744 56.6873C106.876 55.9107 107.961 48.917 107.961 48.917C107.961 48.917 110.107 47.1566 109.051 45.8688C108.38 45.05 108.338 42.7003 108.397 41.0962C103.349 39.5611 98.1014 38.7828 92.8254 38.7868C63.3383 38.7868 39.4343 62.6908 39.4343 92.1779C39.4343 121.665 63.3383 145.569 92.8254 145.569C122.312 145.569 146.216 121.665 146.216 92.1779C146.223 85.7718 145.074 79.4172 142.824 73.4191C142.55 73.7284 142.338 73.8134 142.21 73.6031Z"
            fill="#3F3D56" />
        <path opacity="0.1"
            d="M142.21 73.6031C141.192 71.9246 137.638 71.9679 137.638 71.9679C134.401 76.7766 126.622 71.6686 126.622 71.6686C120.843 74.2537 117.318 66.0156 117.318 66.0156C109.543 64.853 110.744 56.6873 110.744 56.6873C106.876 55.9107 107.961 48.917 107.961 48.917C107.961 48.917 110.107 47.1566 109.051 45.8688C108.38 45.05 108.338 42.7003 108.397 41.0962C103.349 39.5611 98.1014 38.7828 92.8254 38.7868C63.3383 38.7868 39.4343 62.6908 39.4343 92.1779C39.4343 121.665 63.3383 145.569 92.8254 145.569C122.312 145.569 146.216 121.665 146.216 92.1779C146.223 85.7718 145.074 79.4172 142.824 73.4191C142.55 73.7284 142.338 73.8134 142.21 73.6031Z"
            fill="black" />
        <path
            d="M139.046 73.3923C138.078 71.7959 134.697 71.8371 134.697 71.8371C131.619 76.4104 124.22 71.5525 124.22 71.5525C118.725 74.011 115.372 66.1762 115.372 66.1762C107.978 65.0705 109.12 57.3045 109.12 57.3045C105.441 56.5659 106.473 49.9146 106.473 49.9146C106.473 49.9146 108.515 48.2404 107.51 47.0156C106.871 46.2369 106.832 44.0022 106.888 42.4767C102.087 41.0167 97.0964 40.2765 92.0786 40.2803C64.0349 40.2803 41.301 63.0141 41.301 91.0578C41.301 119.101 64.0349 141.835 92.0786 141.835C120.122 141.835 142.856 119.101 142.856 91.0578C142.862 84.9654 141.769 78.9218 139.63 73.2173C139.369 73.5114 139.167 73.5923 139.046 73.3923Z"
            fill="#3F3D56" />
        <path
            d="M86.0154 70.2982C86.0154 70.2982 77.2591 64.726 68.9008 70.2982C65.9754 72.2484 64.5127 75.0276 63.8472 77.8165C62.6638 82.7752 63.9616 88.0028 67.1259 91.9998L86.0346 115.885C86.6831 116.717 87.5526 117.35 88.5437 117.711C89.5349 118.072 90.6077 118.147 91.6394 117.927C91.6804 117.918 91.7216 117.908 91.763 117.898C92.5102 117.714 93.2119 117.38 93.8247 116.914C94.4376 116.449 94.9486 115.863 95.3264 115.193L108.477 92.0995C110.91 87.894 111.907 83.0106 111.318 78.188C110.701 73.4388 108.42 68.4325 101.936 66.716C101.936 66.716 94.3737 63.5319 86.0154 70.2982Z"
            fill="#007AFF" />
        <path opacity="0.1"
            d="M86.0154 70.2982C86.0154 70.2982 77.2591 64.726 68.9008 70.2982C65.9754 72.2484 64.5127 75.0276 63.8472 77.8165C62.6638 82.7752 63.9616 88.0028 67.1259 91.9998L86.0346 115.885C86.6831 116.717 87.5526 117.35 88.5437 117.711C89.5349 118.072 90.6077 118.147 91.6394 117.927C91.6804 117.918 91.7216 117.908 91.763 117.898C92.5102 117.714 93.2119 117.38 93.8247 116.914C94.4376 116.449 94.9486 115.863 95.3264 115.193L108.477 92.0995C110.91 87.894 111.907 83.0106 111.318 78.188C110.701 73.4388 108.42 68.4325 101.936 66.716C101.936 66.716 94.3737 63.5319 86.0154 70.2982Z"
            fill="black" />
        <path
            d="M86.1045 71.6429C86.1045 71.6429 77.8904 66.4158 70.0498 71.6429C67.3056 73.4724 65.9334 76.0794 65.3091 78.6956C64.1991 83.3472 65.4164 88.2511 68.3848 92.0006L86.1225 114.406C86.7307 115.187 87.5464 115.78 88.4762 116.119C89.406 116.458 90.4123 116.528 91.3802 116.322C91.4186 116.313 91.4572 116.304 91.4961 116.295C92.197 116.123 92.8552 115.809 93.4301 115.372C94.005 114.936 94.4844 114.386 94.8388 113.757L107.175 92.0941C109.457 88.149 110.392 83.5681 109.84 79.0441C109.261 74.589 107.122 69.8928 101.039 68.2827C101.039 68.2827 93.9451 65.2957 86.1045 71.6429Z"
            fill="#007AFF" />
        <path opacity="0.1"
            d="M86.4245 80.6056C86.4245 80.6056 82.4282 78.0625 78.6135 80.6056C77.429 81.4072 76.6021 82.6375 76.307 84.037C76.0517 85.1589 76.0536 86.3241 76.3128 87.4452C76.5719 88.5663 77.0816 89.6141 77.8034 90.5102C77.8034 90.5102 88.0347 102.557 88.9913 102.343C89.01 102.339 89.0288 102.335 89.0477 102.33C89.737 102.165 96.6758 90.5557 96.6758 90.5557C97.7861 88.6363 98.2412 86.4076 97.9723 84.2065C97.6909 82.039 96.65 79.7542 93.6906 78.9708C93.6906 78.9708 90.2392 77.5176 86.4245 80.6056Z"
            fill="black" />
        <path opacity="0.1"
            d="M61.4625 99.6451L62.5826 101.512L64.8226 105.246L65.5694 107.859L64.076 110.099L65.9427 114.58L66.6895 117.193L65.1961 118.687L68.1829 120.927"
            fill="black" />
        <path opacity="0.1"
            d="M116.347 83.2171V86.2041L114.48 91.0578L113.36 93.6713L115.227 97.0316L115.974 99.2718L118.96 100.392L120.08 102.259V106.739"
            fill="black" />
        <path opacity="0.1" d="M135.389 86.2042L132.402 88.071C132.402 88.071 130.908 88.8177 130.908 89.1911V92.178"
            fill="black" />
        <path opacity="0.1" d="M121.948 75.75L122.694 79.4836L121.948 82.0973" fill="black" />
        <path opacity="0.1"
            d="M124.934 109.353L122.694 112.713L120.081 114.953V116.446L121.574 118.313V120.554L120.454 122.794"
            fill="black" />
        <path opacity="0.1"
            d="M103.653 45.8808H99.9191L96.9321 48.4943L92.0784 51.1078L89.8381 52.9747V53.7215L84.9844 56.335L83.491 58.9485"
            fill="black" />
        <path opacity="0.1"
            d="M63.3294 52.2279L59.9692 58.9485L58.8491 61.562L56.2355 64.9223C56.2355 64.9223 54.3687 68.2826 53.9953 68.6559C53.622 69.0293 51.0084 69.776 51.0084 69.776L54.7421 73.5097"
            fill="black" />
        <path opacity="0.1"
            d="M48.3949 77.9903L47.6481 82.844L48.3949 85.831V91.058L46.1547 100.765L48.3949 103.379L51.0084 106.739"
            fill="black" />
        <path opacity="0.1" d="M53.9953 80.2303L56.2355 81.3505L57.7289 86.2042L60.7159 85.4574L62.2093 88.0711"
            fill="black" />
        <path opacity="0.1" d="M95.0656 128.768L101.039 128.021L103.653 125.407H107.387" fill="black" />
        <path opacity="0.1" d="M58.8486 120.927L61.0888 123.54L64.8225 124.661L67.4362 125.407L68.1828 129.514"
            fill="black" />
        <path opacity="0.1" d="M102.906 108.233L105.52 106.366L106.64 103.379L108.88 103.006L110 99.272" fill="black" />
        <path
            d="M35.8533 14.4175H42.1048C44.0785 14.4175 45.9715 15.2016 47.3671 16.5972C48.7628 17.9929 49.5468 19.8858 49.5468 21.8595V35.553H28.4113V21.8596C28.4113 20.8822 28.6038 19.9145 28.9778 19.0116C29.3518 18.1087 29.9 17.2883 30.591 16.5972C31.2821 15.9062 32.1025 15.358 33.0054 14.984C33.9083 14.61 34.876 14.4175 35.8533 14.4175V14.4175Z"
            fill="#2F2E41" />
        <path
            d="M42.2716 131.852C42.2716 131.852 41.607 136.061 40.4993 136.726C39.3916 137.39 46.2593 138.941 46.2593 138.941L47.367 132.295L42.2716 131.852Z"
            fill="#FBBEBE" />
        <path
            d="M50.4685 83.7776L52.9054 86.6576L51.7977 96.6269L50.9116 116.344C50.9116 116.344 52.6839 133.402 50.9116 133.846C49.1393 134.289 41.1638 134.067 41.3854 132.959C41.6069 131.852 41.8284 130.966 42.2715 129.415C42.7146 127.864 41.8284 122.325 41.8284 122.325L42.9361 116.122L38.9484 89.316L50.4685 83.7776Z"
            fill="#2F2E41" />
        <path
            d="M42.4929 136.061C42.4929 136.061 40.056 135.618 39.8344 136.061C39.6129 136.504 35.4036 141.156 34.739 141.156C34.0744 141.156 29.2005 145.587 34.296 145.809C39.3914 146.03 47.8099 142.042 47.8099 142.042C47.8099 142.042 46.571 136.405 46.6366 136.676C46.7022 136.947 42.4929 137.169 42.4929 136.061Z"
            fill="#2F2E41" />
        <path
            d="M39.8349 125.87C39.8349 125.87 46.038 132.738 46.2596 133.402C46.4811 134.067 49.8042 133.402 49.8042 133.402L51.1334 128.972L50.0257 127.421L43.8226 122.325L39.8349 125.87Z"
            fill="#FBBEBE" />
        <path
            d="M48.6961 130.966L45.4838 133.989C45.4838 133.989 49.5823 140.27 49.5823 140.935C49.5823 141.599 49.8038 147.138 52.0192 146.252C54.2346 145.366 54.4561 136.504 54.4561 136.504C54.4561 136.504 54.2346 127.421 52.9053 126.756C51.5761 126.092 48.6628 126.302 48.6628 126.302C48.6628 126.302 50.4684 130.744 48.6961 130.966Z"
            fill="#2F2E41" />
        <path
            d="M30.3083 64.0604C30.3083 64.0604 29.2006 67.605 28.979 68.4912C28.7575 69.3773 27.4282 71.8143 27.4282 75.5805C27.4282 79.3466 27.8713 83.7774 27.4282 84.2205C26.9852 84.6636 19.8959 109.476 22.9974 112.135C26.099 114.793 36.2898 123.655 36.9544 124.762C37.6191 125.87 37.8406 128.528 39.1698 128.085C40.4991 127.642 45.5945 123.212 45.816 122.325C46.0376 121.439 42.936 119.888 42.936 119.888C42.936 119.888 36.7329 110.805 35.1821 111.027C33.6314 111.248 33.8529 109.919 34.0744 109.255C34.296 108.59 34.7391 108.147 34.0744 108.147C33.4098 108.147 33.8529 106.374 34.0744 105.488C34.296 104.602 39.3914 92.639 39.3914 92.639L52.9053 86.6575C52.9053 86.6575 52.2407 70.485 47.3668 66.0542L46.2591 63.3958C46.2591 63.3958 33.8529 62.5096 30.3083 64.0604Z"
            fill="#2F2E41" />
        <path
            d="M35.8467 29.0572C35.8467 29.0572 36.9544 36.8111 34.2959 37.2541C31.6375 37.6972 29.4221 37.4757 29.4221 37.6972C29.4221 37.9188 36.0683 44.7865 36.0683 44.7865L42.2714 44.3434L47.8099 38.3618C47.8099 38.3618 42.7144 37.4757 42.7144 34.3741C42.7144 31.2726 42.4929 29.0572 42.4929 29.0572H35.8467Z"
            fill="#FBBEBE" />
        <path opacity="0.1"
            d="M35.8467 29.0572C35.8467 29.0572 36.9544 36.8111 34.2959 37.2541C31.6375 37.6972 29.4221 37.4757 29.4221 37.6972C29.4221 37.9188 36.0683 44.7865 36.0683 44.7865L42.2714 44.3434L47.8099 38.3618C47.8099 38.3618 42.7144 37.4757 42.7144 34.3741C42.7144 31.2726 42.4929 29.0572 42.4929 29.0572H35.8467Z"
            fill="black" />
        <path
            d="M39.2808 32.2695C43.0738 32.2695 46.1486 29.1947 46.1486 25.4018C46.1486 21.6088 43.0738 18.5341 39.2808 18.5341C35.4879 18.5341 32.4131 21.6088 32.4131 25.4018C32.4131 29.1947 35.4879 32.2695 39.2808 32.2695Z"
            fill="#FBBEBE" />
        <path
            d="M33.1885 36.5895C33.1885 36.5895 24.5484 37.6972 23.8838 40.5772C23.2192 43.4572 28.3146 61.4019 28.9792 62.9527C29.6438 64.5035 29.4223 65.6112 29.4223 65.6112C30.4247 64.8615 31.5761 64.3352 32.7989 64.0677C34.0217 63.8002 35.2877 63.7977 36.5116 64.0604C40.7208 64.9466 46.7024 64.5035 46.7024 64.5035C46.7024 64.5035 48.6963 56.3065 49.1393 55.4204C49.5824 54.5342 51.3547 49.6603 51.3547 48.3311C51.3547 47.0019 54.0132 41.4634 54.0132 41.4634C54.0132 41.4634 52.684 37.4756 47.8101 37.6972C47.8101 37.6972 45.6842 36.7457 45.0856 37.443C44.487 38.1403 41.1639 41.2418 36.9546 39.9126C32.7454 38.5833 33.1885 36.5895 33.1885 36.5895Z"
            fill="#404F64" />
        <path
            d="M26.3209 40.3557H23.8839L22.5547 57.8574C22.5547 57.8574 27.4286 59.1866 28.0932 58.3005C28.7578 57.4143 26.3209 40.3557 26.3209 40.3557Z"
            fill="#404F64" />
        <path
            d="M49.804 40.3557L54.0132 41.4634C54.0132 41.4634 57.1148 52.762 57.3363 52.9835C57.5578 53.2051 57.7794 54.5343 57.7794 54.5343C57.7794 54.5343 57.7794 54.7558 58.2225 55.4205C58.6655 56.0851 59.3302 55.642 58.8871 56.5282C58.444 57.4143 57.7794 56.9712 58.2225 57.8574C58.6655 58.7436 58.444 61.1805 58.444 61.1805C58.444 61.1805 57.3363 56.9712 53.3486 58.0789L50.6901 46.1158L49.804 40.3557Z"
            fill="#404F64" />
        <path d="M44.6428 23.7315H33.9717L31.5558 18.1788H46.4548L44.6428 23.7315Z" fill="#2F2E41" />
        <path
            d="M32.5717 27.7944C32.8567 27.7118 32.9092 27.0287 32.689 26.2686C32.4687 25.5085 32.0591 24.9592 31.774 25.0418C31.489 25.1244 31.4365 25.8076 31.6567 26.5677C31.877 27.3278 32.2866 27.877 32.5717 27.7944Z"
            fill="#FFB9B9" />
        <path
            d="M47.0086 26.5678C47.2289 25.8077 47.1764 25.1245 46.8913 25.0419C46.6063 24.9593 46.1966 25.5086 45.9764 26.2687C45.7561 27.0288 45.8086 27.7119 46.0937 27.7945C46.3787 27.8771 46.7884 27.3279 47.0086 26.5678Z"
            fill="#FFB9B9" />
        <path
            d="M45.1941 55.8454C47.3965 55.8454 49.1819 54.06 49.1819 51.8577C49.1819 49.6553 47.3965 47.8699 45.1941 47.8699C42.9918 47.8699 41.2064 49.6553 41.2064 51.8577C41.2064 54.06 42.9918 55.8454 45.1941 55.8454Z"
            fill="#3F3D56" />
        <path opacity="0.1"
            d="M45.1941 55.8454C47.3965 55.8454 49.1819 54.06 49.1819 51.8577C49.1819 49.6553 47.3965 47.8699 45.1941 47.8699C42.9918 47.8699 41.2064 49.6553 41.2064 51.8577C41.2064 54.06 42.9918 55.8454 45.1941 55.8454Z"
            fill="black" />
        <path
            d="M45.1944 55.4499C47.1783 55.4499 48.7866 53.8416 48.7866 51.8577C48.7866 49.8737 47.1783 48.2654 45.1944 48.2654C43.2104 48.2654 41.6021 49.8737 41.6021 51.8577C41.6021 53.8416 43.2104 55.4499 45.1944 55.4499Z"
            fill="#3F3D56" />
        <path opacity="0.1"
            d="M45.0357 49.8269C45.0357 49.8269 44.1204 49.2445 43.2468 49.8269C42.9755 50.0105 42.7861 50.2923 42.7185 50.6128C42.66 50.8697 42.6605 51.1366 42.7198 51.3934C42.7792 51.6501 42.8959 51.8901 43.0612 52.0953L45.0377 54.5919C45.1055 54.6789 45.1963 54.745 45.2999 54.7828C45.4036 54.8205 45.5157 54.8283 45.6235 54.8054L45.6364 54.8024C45.7145 54.7832 45.7879 54.7481 45.8519 54.6995C45.916 54.6509 45.9694 54.5896 46.0089 54.5196L47.3835 52.1057C47.6378 51.6661 47.742 51.1557 47.6804 50.6516C47.6663 50.3733 47.5635 50.1068 47.387 49.891C47.2106 49.6753 46.9698 49.5216 46.6998 49.4525C46.6998 49.4525 45.9093 49.1197 45.0357 49.8269Z"
            fill="black" />
        <path
            d="M45.045 49.9676C45.045 49.9676 44.1864 49.4212 43.3669 49.9676C43.1124 50.1398 42.9347 50.4041 42.8713 50.7047C42.8165 50.9458 42.8169 51.1961 42.8726 51.437C42.9283 51.6778 43.0377 51.903 43.1928 52.0955L45.0469 54.4374C45.1105 54.519 45.1957 54.5811 45.2929 54.6165C45.3901 54.6519 45.4953 54.6592 45.5964 54.6377L45.6086 54.6349C45.6818 54.6168 45.7506 54.584 45.8107 54.5384C45.8708 54.4928 45.9209 54.4353 45.958 54.3696L47.2474 52.1052C47.4859 51.6929 47.5837 51.2141 47.5259 50.7412C47.5127 50.4801 47.4162 50.2301 47.2507 50.0277C47.0852 49.8253 46.8593 49.6812 46.606 49.6163C46.606 49.6163 45.8645 49.3041 45.045 49.9676Z"
            fill="#007AFF" />
        <path opacity="0.1"
            d="M45.0783 50.9045C44.9552 50.83 44.814 50.7905 44.67 50.7905C44.5261 50.7905 44.3849 50.83 44.2618 50.9045C44.138 50.9883 44.0516 51.1169 44.0207 51.2632C43.994 51.3805 43.9942 51.5023 44.0213 51.6195C44.0484 51.7366 44.1017 51.8462 44.1771 51.9398C44.1771 51.9398 45.2466 53.1991 45.3466 53.1767L45.3524 53.1753C45.4245 53.158 46.1498 51.9446 46.1498 51.9446C46.2658 51.744 46.3134 51.511 46.2853 51.2809C46.2788 51.1539 46.2319 51.0323 46.1514 50.9338C46.0709 50.8353 45.961 50.7652 45.8377 50.7337C45.7073 50.6927 45.5684 50.687 45.435 50.717C45.3017 50.747 45.1786 50.8117 45.0783 50.9045V50.9045Z"
            fill="black" />
        <path
            d="M41.6494 58.061C43.8518 58.061 45.6371 56.2756 45.6371 54.0733C45.6371 51.8709 43.8518 50.0855 41.6494 50.0855C39.447 50.0855 37.6617 51.8709 37.6617 54.0733C37.6617 56.2756 39.447 58.061 41.6494 58.061Z"
            fill="#3F3D56" />
        <path opacity="0.1"
            d="M41.6494 58.061C43.8518 58.061 45.6371 56.2756 45.6371 54.0733C45.6371 51.8709 43.8518 50.0855 41.6494 50.0855C39.447 50.0855 37.6617 51.8709 37.6617 54.0733C37.6617 56.2756 39.447 58.061 41.6494 58.061Z"
            fill="black" />
        <path
            d="M41.6497 57.6654C43.6336 57.6654 45.2419 56.057 45.2419 54.0731C45.2419 52.0892 43.6336 50.4809 41.6497 50.4809C39.6657 50.4809 38.0574 52.0892 38.0574 54.0731C38.0574 56.057 39.6657 57.6654 41.6497 57.6654Z"
            fill="#3F3D56" />
        <path opacity="0.1"
            d="M41.4909 52.0426C41.4909 52.0426 40.5757 51.4601 39.702 52.0426C39.4307 52.2262 39.2414 52.5079 39.1738 52.8284C39.1153 53.0854 39.1157 53.3522 39.1751 53.609C39.2345 53.8657 39.3512 54.1057 39.5165 54.311L41.4929 56.8075C41.5607 56.8945 41.6516 56.9606 41.7552 56.9984C41.8588 57.0361 41.9709 57.044 42.0788 57.021L42.0917 57.018C42.1698 56.9988 42.2432 56.9638 42.3072 56.9151C42.3713 56.8665 42.4247 56.8053 42.4642 56.7352L43.8387 54.3214C44.093 53.8818 44.1973 53.3713 44.1357 52.8673C44.1215 52.5889 44.0187 52.3224 43.8423 52.1067C43.6658 51.8909 43.425 51.7373 43.155 51.6681C43.155 51.6681 42.3646 51.3353 41.4909 52.0426Z"
            fill="black" />
        <path
            d="M41.5003 52.183C41.5003 52.183 40.6417 51.6366 39.8221 52.183C39.5676 52.3552 39.39 52.6195 39.3266 52.9202C39.2717 53.1612 39.2722 53.4115 39.3278 53.6524C39.3835 53.8933 39.493 54.1184 39.6481 54.3109L41.5021 56.6528C41.5657 56.7344 41.651 56.7965 41.7482 56.8319C41.8453 56.8673 41.9505 56.8747 42.0517 56.8531L42.0638 56.8503C42.1371 56.8323 42.2059 56.7994 42.266 56.7538C42.3261 56.7082 42.3762 56.6507 42.4132 56.585L43.7026 54.3207C43.9412 53.9083 44.039 53.4295 43.9812 52.9566C43.9679 52.6955 43.8715 52.4455 43.706 52.2431C43.5405 52.0407 43.3146 51.8966 43.0613 51.8318C43.0613 51.8318 42.3198 51.5195 41.5003 52.183Z"
            fill="#007AFF" />
        <path opacity="0.1"
            d="M41.5339 53.1198C41.4108 53.0452 41.2696 53.0058 41.1257 53.0058C40.9817 53.0058 40.8405 53.0452 40.7174 53.1198C40.5936 53.2035 40.5072 53.3321 40.4764 53.4784C40.4497 53.5957 40.4499 53.7175 40.4769 53.8347C40.504 53.9518 40.5573 54.0614 40.6328 54.155C40.6328 54.155 41.7022 55.4143 41.8022 55.3919L41.8081 55.3905C41.8801 55.3732 42.6054 54.1598 42.6054 54.1598C42.7215 53.9592 42.769 53.7262 42.7409 53.4961C42.7345 53.3691 42.6875 53.2475 42.607 53.149C42.5265 53.0505 42.4166 52.9804 42.2934 52.9489C42.1629 52.9079 42.024 52.9022 41.8907 52.9322C41.7573 52.9622 41.6342 53.0269 41.5339 53.1198V53.1198Z"
            fill="black" />
        <path
            d="M38.6085 44.1034C38.5114 43.9432 38.1721 43.9474 38.1721 43.9474C37.8633 44.4063 37.1208 43.9188 37.1208 43.9188C36.5693 44.1655 36.2329 43.3793 36.2329 43.3793C35.4909 43.2684 35.6055 42.4891 35.6055 42.4891C35.2363 42.4149 35.3399 41.7475 35.3399 41.7475C35.3399 41.7475 35.5447 41.5795 35.4439 41.4566C35.3838 41.3128 35.3623 41.1558 35.3815 41.0011C34.2819 40.6664 33.1014 40.7136 32.0321 41.1349C30.9627 41.5563 30.0673 42.327 29.4916 43.3218C28.9158 44.3166 28.6936 45.4769 28.8609 46.614C29.0283 47.7511 29.5754 48.7982 30.4134 49.5849C31.2513 50.3716 32.3308 50.8517 33.4762 50.9471C34.6216 51.0425 35.7656 50.7475 36.7221 50.1102C37.6786 49.473 38.3914 48.5308 38.7445 47.437C39.0977 46.3433 39.0704 45.1622 38.6671 44.0859C38.6409 44.1154 38.6207 44.1235 38.6085 44.1034Z"
            fill="#3F3D56" />
        <path opacity="0.1"
            d="M38.6085 44.1034C38.5114 43.9432 38.1721 43.9474 38.1721 43.9474C37.8633 44.4063 37.1208 43.9188 37.1208 43.9188C36.5693 44.1655 36.2329 43.3793 36.2329 43.3793C35.4909 43.2684 35.6055 42.4891 35.6055 42.4891C35.2363 42.4149 35.3399 41.7475 35.3399 41.7475C35.3399 41.7475 35.5447 41.5795 35.4439 41.4566C35.3838 41.3128 35.3623 41.1558 35.3815 41.0011C34.2819 40.6664 33.1014 40.7136 32.0321 41.1349C30.9627 41.5563 30.0673 42.327 29.4916 43.3218C28.9158 44.3166 28.6936 45.4769 28.8609 46.614C29.0283 47.7511 29.5754 48.7982 30.4134 49.5849C31.2513 50.3716 32.3308 50.8517 33.4762 50.9471C34.6216 51.0425 35.7656 50.7475 36.7221 50.1102C37.6786 49.473 38.3914 48.5308 38.7445 47.437C39.0977 46.3433 39.0704 45.1622 38.6671 44.0859C38.6409 44.1154 38.6207 44.1235 38.6085 44.1034Z"
            fill="black" />
        <path
            d="M38.3068 44.0835C38.2144 43.9311 37.8918 43.9351 37.8918 43.9351C37.598 44.3715 36.8919 43.9079 36.8919 43.9079C36.3674 44.1425 36.0475 43.3948 36.0475 43.3948C35.3418 43.2893 35.4508 42.5482 35.4508 42.5482C35.0997 42.4777 35.1982 41.8429 35.1982 41.8429C35.1982 41.8429 35.393 41.6831 35.2971 41.5662C35.2399 41.4295 35.2195 41.2801 35.2377 41.133C34.192 40.8147 33.0693 40.8596 32.0523 41.2603C31.0353 41.661 30.1837 42.394 29.6362 43.3401C29.0886 44.2862 28.8772 45.3897 29.0364 46.4712C29.1955 47.5526 29.7159 48.5484 30.5128 49.2967C31.3097 50.0449 32.3363 50.5014 33.4257 50.5922C34.515 50.6829 35.603 50.4024 36.5127 49.7963C37.4224 49.1902 38.1003 48.2942 38.4362 47.2539C38.772 46.2137 38.7461 45.0904 38.3625 44.0668C38.3377 44.0949 38.3184 44.1026 38.3068 44.0835Z"
            fill="#3F3D56" />
        <path
            d="M33.2455 43.788C33.2455 43.788 32.4099 43.2563 31.6122 43.788C31.3645 43.9557 31.1916 44.2129 31.1299 44.5056C31.0765 44.7402 31.0769 44.9838 31.1311 45.2183C31.1853 45.4527 31.2919 45.6718 31.4428 45.8592L33.2474 48.1386C33.3093 48.218 33.3922 48.2784 33.4868 48.3129C33.5814 48.3474 33.6838 48.3545 33.7823 48.3335L33.7941 48.3308C33.8654 48.3133 33.9323 48.2813 33.9908 48.2369C34.0493 48.1925 34.0981 48.1366 34.1341 48.0726L35.3892 45.8687C35.6213 45.4673 35.7165 45.0013 35.6603 44.541C35.6474 44.2869 35.5535 44.0435 35.3924 43.8466C35.2313 43.6496 35.0114 43.5093 34.7649 43.4462C34.7649 43.4462 34.0432 43.1423 33.2455 43.788Z"
            fill="#007AFF" />
        <path opacity="0.1"
            d="M33.2455 43.788C33.2455 43.788 32.4099 43.2563 31.6122 43.788C31.3645 43.9557 31.1916 44.2129 31.1299 44.5056C31.0765 44.7402 31.0769 44.9838 31.1311 45.2183C31.1853 45.4527 31.2919 45.6718 31.4428 45.8592L33.2474 48.1386C33.3093 48.218 33.3922 48.2784 33.4868 48.3129C33.5814 48.3474 33.6838 48.3545 33.7823 48.3335L33.7941 48.3308C33.8654 48.3133 33.9323 48.2813 33.9908 48.2369C34.0493 48.1925 34.0981 48.1366 34.1341 48.0726L35.3892 45.8687C35.6213 45.4673 35.7165 45.0013 35.6603 44.541C35.6474 44.2869 35.5535 44.0435 35.3924 43.8466C35.2313 43.6496 35.0114 43.5093 34.7649 43.4462C34.7649 43.4462 34.0432 43.1423 33.2455 43.788Z"
            fill="black" />
        <path
            d="M33.2543 43.9165C33.2543 43.9165 32.4704 43.4177 31.7221 43.9165C31.4898 44.0737 31.3276 44.3151 31.2697 44.5896C31.2196 44.8097 31.22 45.0382 31.2708 45.2581C31.3217 45.478 31.4216 45.6836 31.5632 45.8594L33.2561 47.9976C33.3141 48.0721 33.3919 48.1288 33.4807 48.1611C33.5694 48.1935 33.6655 48.2002 33.7578 48.1805L33.7689 48.1779C33.8358 48.1615 33.8986 48.1315 33.9535 48.0898C34.0083 48.0482 34.0541 47.9957 34.0879 47.9357L35.2652 45.8683C35.483 45.4918 35.5723 45.0546 35.5195 44.6228C35.5074 44.3845 35.4194 44.1562 35.2682 43.9714C35.1171 43.7866 34.9109 43.655 34.6796 43.5958C34.6796 43.5958 34.0026 43.3108 33.2543 43.9165Z"
            fill="#007AFF" />
        <path opacity="0.1"
            d="M33.2849 44.7718C33.1725 44.7038 33.0436 44.6678 32.9122 44.6678C32.7808 44.6678 32.6519 44.7038 32.5395 44.7718C32.4264 44.8483 32.3475 44.9658 32.3194 45.0993C32.295 45.2064 32.2952 45.3176 32.3199 45.4246C32.3446 45.5316 32.3933 45.6316 32.4622 45.7171C32.4622 45.7171 33.4386 46.8668 33.5299 46.8464L33.5353 46.8451C33.7973 46.4835 34.0403 46.1084 34.2632 45.7214C34.3692 45.5382 34.4126 45.3256 34.387 45.1155C34.3811 44.9995 34.3382 44.8884 34.2647 44.7985C34.1912 44.7086 34.0909 44.6446 33.9784 44.6158C33.8593 44.5784 33.7324 44.5732 33.6107 44.6006C33.4889 44.628 33.3765 44.6871 33.2849 44.7718Z"
            fill="black" />
        <path opacity="0.1"
            d="M30.903 46.5887L31.0097 46.7669L31.2235 47.1231L31.2949 47.3726L31.1522 47.5863L31.3305 48.0139L31.4016 48.2634L31.2592 48.406L31.5443 48.6198"
            fill="black" />
        <path opacity="0.1"
            d="M36.1405 45.021V45.3061L35.9624 45.7694L35.8553 46.0186L36.0335 46.3394L36.1048 46.5532L36.3899 46.66L36.4967 46.8383V47.2659"
            fill="black" />
        <path opacity="0.1" d="M37.9577 45.3059L37.6726 45.484C37.6726 45.484 37.5301 45.5553 37.5301 45.5909V45.876"
            fill="black" />
        <path opacity="0.1" d="M36.6748 44.3083L36.7461 44.6646L36.6748 44.914" fill="black" />
        <path opacity="0.1"
            d="M36.9599 47.5153L36.7462 47.8359L36.4967 48.0497V48.1923L36.6394 48.3705V48.5842L36.5324 48.798"
            fill="black" />
        <path opacity="0.1"
            d="M34.9287 41.4578H34.5725L34.2874 41.7072L33.8241 41.9567L33.6103 42.1348V42.2061L33.1471 42.4554L33.0046 42.7048"
            fill="black" />
        <path opacity="0.1"
            d="M31.0805 42.0635L30.7598 42.7049L30.6529 42.9543L30.4034 43.275C30.4034 43.275 30.2253 43.5957 30.1897 43.6314C30.0986 43.6768 30.0031 43.7126 29.9046 43.7383L30.2609 44.0946"
            fill="black" />
        <path opacity="0.1"
            d="M29.6552 44.522L29.5839 44.9853L29.6552 45.2704V45.7693L29.4414 46.6956L29.6552 46.945L29.9046 47.2658"
            fill="black" />
        <path opacity="0.1" d="M30.1896 44.7359L30.4034 44.8429L30.5459 45.3062L30.831 45.2348L30.9734 45.4843"
            fill="black" />
        <path opacity="0.1" d="M34.1091 49.3681L34.6792 49.2969L34.9286 49.0475H35.2851" fill="black" />
        <path opacity="0.1" d="M30.6528 48.6198L30.8666 48.8693L31.2229 48.9761L31.4723 49.0474L31.5436 49.4393"
            fill="black" />
        <path opacity="0.1" d="M34.8578 47.4083L35.1072 47.2302L35.214 46.9451L35.4278 46.9094L35.5348 46.5532"
            fill="black" />
        <path
            d="M23.219 56.0851L22.5544 57.8574C22.5544 57.8574 22.1113 63.6174 24.7698 63.3959C27.4283 63.1744 28.9791 59.8513 28.9791 59.8513C28.9791 59.8513 27.4283 55.642 25.656 56.0851C23.8837 56.5282 23.219 56.0851 23.219 56.0851Z"
            fill="#404F64" />
        <path
            d="M25.4347 57.1927C25.4347 57.1927 24.1055 61.1805 25.6562 61.1805C27.207 61.1805 30.087 58.7435 30.3086 56.7497C30.5301 54.7558 34.5178 47.2234 31.6378 47.8881C28.7578 48.5527 27.4286 54.0912 27.4286 54.0912L25.4347 57.1927Z"
            fill="#FBBEBE" />
        <path
            d="M57.1146 57.4142L58.4986 59.7271C58.4986 59.7271 59.1085 64.0604 56.0069 64.0604C52.9054 64.0604 48.4746 59.8511 48.4746 59.8511C48.4746 59.8511 46.2592 58.965 44.9299 59.1865C43.6007 59.408 36.2899 59.1865 39.3914 55.4203C42.493 51.6541 47.8099 55.4203 47.8099 55.4203L53.3484 58.0788L56.2284 56.528L57.1146 57.4142Z"
            fill="#FBBEBE" />
        <path
            d="M55.2317 54.4234L53.0163 57.9681C53.0163 57.9681 58.1117 58.6327 58.5548 59.7404C58.9979 60.8481 56.5609 53.9803 56.5609 53.9803L55.2317 54.4234Z"
            fill="#404F64" />
    </g>
    <defs>
        <clipPath id="clip0_1_104">
            <rect width="179.447" height="150" fill="white" />
        </clipPath>
    </defs>
</svg>